<?xml version="1.0" encoding="utf-8" ?>
<svg xmlns="http://www.w3.org/2000/svg" xmlns:xlink="http://www.w3.org/1999/xlink" width="2048" height="2048">
	<path fill="#061829" d="M408.296 702.143C424.529 669.596 442.846 638.051 459.988 605.969C467.776 591.394 488.581 548.157 497.842 537.797C506.082 528.578 538.314 512.275 551.165 504.598C599.566 475.683 647.809 444.147 698.348 419.174C729.501 403.946 761.552 390.625 794.321 379.284C979.124 317.773 1180.85 332.746 1354.55 420.865C1405.22 446.232 1454.29 476.135 1502.43 506.045C1515.63 514.25 1532.15 522.374 1543.31 532.995C1556.56 545.609 1581.91 595.698 1592.02 614.291C1612.1 651.179 1632.85 687.527 1650.86 725.495C1657.86 740.246 1665.07 755.177 1670.2 770.701C1670.47 771.531 1670.74 772.362 1671.01 773.195C1680.31 797.566 1689.21 822.171 1696.23 847.311C1707.74 888.952 1716.28 930.591 1722.72 973.32C1725.94 994.665 1729.3 1017.02 1729.43 1038.64C1729.54 1056.77 1726.66 1075.2 1723.85 1093.09C1707.39 1197.76 1663.29 1297.46 1611.4 1389.04C1587.83 1429.96 1563.99 1470.72 1539.88 1511.32C1519.17 1546.93 1499.11 1584.84 1474.3 1617.7C1431.25 1624.14 1388.86 1627.75 1346.6 1639.14C1307.18 1649.78 1271.01 1668.54 1232.34 1681.25C1125.57 1716.36 1003.27 1722.28 892.99 1701.96C855.93 1695.07 819.552 1684.91 784.282 1671.61C761.014 1662.7 738.427 1651.72 714.697 1644.11C672.362 1630.53 618.535 1622.6 574.042 1617.14C563.693 1603.4 554.881 1588.5 546.07 1573.75C531.949 1548.28 515.673 1523.53 500.739 1498.46C437.324 1392.02 375.612 1288.64 340.803 1168.6C330.186 1131.99 320.782 1092.64 318.96 1054.46C317.851 1047.13 317.544 1040.27 319.048 1032.96C321.643 1025.63 322.241 1000.46 323.509 990.797C328.116 955.688 333.208 920.403 341.118 885.865C344.604 872.619 347.137 859.117 350.889 845.937C364.11 799.502 384.767 744.23 408.296 702.143Z"/>
	<defs>
		<linearGradient id="gradient_0" gradientUnits="userSpaceOnUse" x1="891.64062" y1="1649.0286" x2="1015.8458" y2="923.39862">
			<stop offset="0" stop-color="#B8CFDE"/>
			<stop offset="1" stop-color="#EBF5FD"/>
		</linearGradient>
	</defs>
	<path fill="url(#gradient_0)" d="M1665.01 1059.6C1668.31 1049.09 1667.8 1000.54 1667.31 987.264C1667 978.911 1665.69 970.322 1665.8 961.999C1665.87 956.527 1668.68 951.24 1669.49 945.869C1670.33 940.216 1669.13 934.368 1669.92 928.66C1671.3 918.732 1675.01 909.117 1676.01 899.128C1676.7 892.253 1677.03 853.655 1678.8 850.481C1681.2 846.151 1685.45 843.657 1687.01 838.584C1687.18 838.044 1687.33 837.5 1687.49 836.957L1689.39 836.238C1691.61 840.92 1691.52 844.744 1696.23 847.311C1707.74 888.952 1716.28 930.591 1722.72 973.32C1725.94 994.665 1729.3 1017.02 1729.43 1038.64C1729.54 1056.77 1726.66 1075.2 1723.85 1093.09C1707.39 1197.76 1663.29 1297.46 1611.4 1389.04C1587.83 1429.96 1563.99 1470.72 1539.88 1511.32C1519.17 1546.93 1499.11 1584.84 1474.3 1617.7C1431.25 1624.14 1388.86 1627.75 1346.6 1639.14C1307.18 1649.78 1271.01 1668.54 1232.34 1681.25C1125.57 1716.36 1003.27 1722.28 892.99 1701.96C855.93 1695.07 819.552 1684.91 784.282 1671.61C761.014 1662.7 738.427 1651.72 714.697 1644.11C672.362 1630.53 618.535 1622.6 574.042 1617.14C563.693 1603.4 554.881 1588.5 546.07 1573.75C531.949 1548.28 515.673 1523.53 500.739 1498.46C437.324 1392.02 375.612 1288.64 340.803 1168.6C330.186 1131.99 320.782 1092.64 318.96 1054.46C317.851 1047.13 317.544 1040.27 319.048 1032.96C328.934 1029.71 367.36 1032.5 381.097 1031.68L384.357 1032.32C403.885 1032.24 423.321 1032.47 442.843 1032.89C443.017 1038.65 442.869 1044.6 443.842 1050.29C445.79 1098.41 453.766 1146.1 467.586 1192.24C469.091 1197.15 471.436 1207.74 475.177 1211.3C475.513 1211.62 475.877 1211.91 476.227 1212.21C486.346 1205.25 527.412 1190.67 541.126 1185.87C544.573 1193.01 547.006 1200.94 549.754 1208.38C527.238 1216.57 505.392 1226.73 482.957 1235.2C507.461 1290.71 530.858 1335.72 568.586 1383.82C586.31 1367.84 605.526 1352.8 624.824 1338.76C630.43 1345.23 636.089 1351.67 641.802 1358.05C622.546 1373.94 602.537 1388.89 583.679 1405.27C618.312 1446.04 663.742 1483.74 709.229 1511.79L746.001 1451.49C753.639 1455.55 761.381 1459.86 768.648 1464.55C755.224 1484.05 743.218 1504.89 730.563 1524.93C771.635 1550.27 819.025 1567.27 864.937 1581.34C871.688 1558.73 877.292 1535.59 883.54 1512.82C891.324 1515.05 899.26 1516.63 907.178 1518.31C902.04 1541.7 895.34 1564.88 889.213 1588.04C929.681 1597.15 968.851 1601.88 1010.3 1603.95C1009.95 1580.28 1010.25 1556.55 1010.27 1532.87L1036.22 1533.04L1036.27 1603.69C1077.61 1602.32 1117.6 1595.76 1158.15 1588.17C1151.9 1564.31 1144.91 1540.61 1139.56 1516.53L1162.45 1511.83L1182.17 1581.75C1228.59 1568.56 1272.68 1548.25 1315.13 1525.58C1302.43 1505.35 1289.35 1485.32 1277.18 1464.77C1284.29 1460.4 1291.47 1456.16 1298.72 1452.04C1313.2 1470.93 1324.5 1492 1337.23 1512.05C1384.67 1480.54 1423.81 1447.33 1462.32 1405.29C1443.41 1388.79 1422.85 1374.24 1403.69 1358C1409.12 1352.21 1413.79 1345.95 1418.54 1339.61C1439.85 1351.86 1458.3 1370.49 1478.72 1384.34C1509.62 1351.38 1549.36 1277.65 1565.65 1234.97C1542.86 1225.84 1519.94 1217.05 1496.89 1208.6C1499.7 1201.21 1502.13 1193.68 1504.64 1186.18L1573.59 1211.8C1592.12 1166.69 1601.64 1094.29 1603.32 1045.4L1604.02 1032.92C1609.14 1032 1615.23 1032.4 1620.48 1032.28C1635.07 1033.64 1649.88 1032.87 1664.51 1033.47C1664.61 1042.1 1664.25 1051.01 1665.01 1059.6Z"/>
	<defs>
		<linearGradient id="gradient_1" gradientUnits="userSpaceOnUse" x1="1234.5575" y1="1679.3181" x2="1066.8975" y2="986.25098">
			<stop offset="0" stop-color="#768FA0"/>
			<stop offset="1" stop-color="#B5DBF1"/>
		</linearGradient>
	</defs>
	<path fill="url(#gradient_1)" d="M1665.01 1059.6C1668.31 1049.09 1667.8 1000.54 1667.31 987.264C1667 978.911 1665.69 970.322 1665.8 961.999C1665.87 956.527 1668.68 951.24 1669.49 945.869C1670.33 940.216 1669.13 934.368 1669.92 928.66C1671.3 918.732 1675.01 909.117 1676.01 899.128C1676.7 892.253 1677.03 853.655 1678.8 850.481C1681.2 846.151 1685.45 843.657 1687.01 838.584C1687.18 838.044 1687.33 837.5 1687.49 836.957L1689.39 836.238C1691.61 840.92 1691.52 844.744 1696.23 847.311C1707.74 888.952 1716.28 930.591 1722.72 973.32C1725.94 994.665 1729.3 1017.02 1729.43 1038.64C1729.54 1056.77 1726.66 1075.2 1723.85 1093.09C1707.39 1197.76 1663.29 1297.46 1611.4 1389.04C1587.83 1429.96 1563.99 1470.72 1539.88 1511.32C1519.17 1546.93 1499.11 1584.84 1474.3 1617.7C1431.25 1624.14 1388.86 1627.75 1346.6 1639.14C1307.18 1649.78 1271.01 1668.54 1232.34 1681.25C1125.57 1716.36 1003.27 1722.28 892.99 1701.96C855.93 1695.07 819.552 1684.91 784.282 1671.61C761.014 1662.7 738.427 1651.72 714.697 1644.11C672.362 1630.53 618.535 1622.6 574.042 1617.14C563.693 1603.4 554.881 1588.5 546.07 1573.75C546.569 1573.3 547.031 1572.8 547.565 1572.39C551.79 1569.12 634.795 1538.73 635.242 1538.84C643.027 1540.91 664.895 1557.45 673.315 1562.63C684.133 1569.25 695.11 1575.6 706.236 1581.69C788.164 1627.11 878.922 1654.33 972.322 1661.49C1144.07 1673.27 1318.23 1620.38 1448.6 1506.23C1579.4 1391.7 1653.42 1232.34 1665.01 1059.6Z"/>
	<path fill="#8FBCD6" d="M381.097 1031.68L384.357 1032.32C403.885 1032.24 423.321 1032.47 442.843 1032.89C443.017 1038.65 442.869 1044.6 443.842 1050.29C445.79 1098.41 453.766 1146.1 467.586 1192.24C469.091 1197.15 471.436 1207.74 475.177 1211.3C475.513 1211.62 475.877 1211.91 476.227 1212.21C476.36 1212.84 476.154 1213.5 476.078 1214.14C475.12 1213.76 473.668 1213.14 472.704 1212.9C470.35 1212.32 469.64 1212.18 467.584 1213.38C468.839 1215.05 469.618 1216.48 470.369 1218.43C469.388 1221.56 467.394 1222.09 464.815 1223.98C466.312 1229.04 469.434 1237.11 468.703 1242.28C468.492 1243.78 467.787 1243.85 466.673 1244.72C465.939 1245.29 465.232 1245.9 464.476 1246.45C464.181 1246.66 463.863 1246.84 463.562 1247.04C457.752 1251 451.195 1269.79 450.046 1276.6C449.674 1278.8 449.496 1280.11 448.17 1281.99C444.529 1283.16 443.221 1281.26 439.651 1281.29L443.278 1285.94C443.768 1288.88 443.309 1292.28 444.252 1295.07C448.069 1306.35 482.041 1361.79 481.419 1364.96C476.422 1359.63 472.489 1350.59 468.814 1344.18C444.535 1301.86 423.404 1257.65 409.072 1210.9C403.813 1193.75 400.883 1168.84 391.524 1153.99C391.313 1153.65 391.094 1153.32 390.879 1152.99C377.806 1134.54 367.061 1113.59 355.52 1094.13C343.541 1073.93 330.335 1054.14 319.447 1033.34C319.386 1040.38 319.357 1047.42 318.96 1054.46C317.851 1047.13 317.544 1040.27 319.048 1032.96C328.934 1029.71 367.36 1032.5 381.097 1031.68Z"/>
	<path fill="#B9D6E3" d="M388.939 1114.25C388.632 1113.9 387.606 1112.74 387.411 1112.42C384.243 1107.26 379.102 1041.64 380.746 1034.8L382.896 1034.89C381.247 1055.13 385.642 1093.73 388.939 1114.25Z"/>
	<defs>
		<linearGradient id="gradient_2" gradientUnits="userSpaceOnUse" x1="1022.7315" y1="668.07831" x2="1023.5383" y2="395.93045">
			<stop offset="0" stop-color="#2392AB"/>
			<stop offset="1" stop-color="#10C6D6"/>
		</linearGradient>
	</defs>
	<path fill="url(#gradient_2)" d="M408.296 702.143C424.529 669.596 442.846 638.051 459.988 605.969C467.776 591.394 488.581 548.157 497.842 537.797C506.082 528.578 538.314 512.275 551.165 504.598C599.566 475.683 647.809 444.147 698.348 419.174C729.501 403.946 761.552 390.625 794.321 379.284C979.124 317.773 1180.85 332.746 1354.55 420.865C1405.22 446.232 1454.29 476.135 1502.43 506.045C1515.63 514.25 1532.15 522.374 1543.31 532.995C1556.56 545.609 1581.91 595.698 1592.02 614.291C1612.1 651.179 1632.85 687.527 1650.86 725.495C1657.86 740.246 1665.07 755.177 1670.2 770.701C1670.47 771.531 1670.74 772.362 1671.01 773.195C1655.46 781.88 1638.23 790.901 1621.46 796.91L1620.94 796.996C1588.66 713.206 1538.24 639.457 1474.4 576.542C1468.95 587.93 1439.7 616.594 1429.29 627.967C1415.67 642.86 1402.43 658.105 1388.65 672.854C1294.24 578.161 1173.93 524.571 1040 519.733L1040.16 431.046L1007.59 431.307C1007.42 449.793 1007.39 468.279 1007.51 486.765C1007.52 497.478 1008.2 508.967 1006.61 519.563C967.899 521.12 928.782 525.578 891.218 535.331C875.37 539.446 859.992 545.646 844.199 549.605C826.656 558.256 808.186 564.699 790.731 573.765C753.771 593.057 719.315 616.806 688.134 644.482C677.91 653.54 668.669 663.807 658.413 672.73C649.314 656.851 610.444 619.478 595.634 604.039C590.011 598.176 582.058 591.468 578.305 584.306C577.368 582.517 577.226 581.404 577.262 579.436C578.527 577.082 579.425 575.016 580.21 572.462L579.827 570.516L571.768 578.207C552.434 593.654 523.539 627.134 510.177 647.715C482.132 679.339 451.12 739.206 433.617 778.296C428.974 791.453 423.101 804.171 418.344 817.297C406.011 851.327 395.308 888.872 390.16 924.707C389.083 935.536 386.96 946.244 385.672 957.054C383.372 976.525 382.012 996.096 381.595 1015.7C381.487 1020.34 381.949 1026.47 380.355 1030.83L381.097 1031.68C367.36 1032.5 328.934 1029.71 319.048 1032.96C321.643 1025.63 322.241 1000.46 323.509 990.797C328.116 955.688 333.208 920.403 341.118 885.865C344.604 872.619 347.137 859.117 350.889 845.937C364.11 799.502 384.767 744.23 408.296 702.143Z"/>
	<defs>
		<linearGradient id="gradient_3" gradientUnits="userSpaceOnUse" x1="1061.2404" y1="797.04913" x2="1055.5884" y2="343.41953">
			<stop offset="0" stop-color="#1ED7E4"/>
			<stop offset="1" stop-color="#21FDFD"/>
		</linearGradient>
	</defs>
	<path fill="url(#gradient_3)" d="M408.296 702.143C424.529 669.596 442.846 638.051 459.988 605.969C467.776 591.394 488.581 548.157 497.842 537.797C506.082 528.578 538.314 512.275 551.165 504.598C599.566 475.683 647.809 444.147 698.348 419.174C729.501 403.946 761.552 390.625 794.321 379.284C979.124 317.773 1180.85 332.746 1354.55 420.865C1405.22 446.232 1454.29 476.135 1502.43 506.045C1515.63 514.25 1532.15 522.374 1543.31 532.995C1556.56 545.609 1581.91 595.698 1592.02 614.291C1612.1 651.179 1632.85 687.527 1650.86 725.495C1657.86 740.246 1665.07 755.177 1670.2 770.701C1670.47 771.531 1670.74 772.362 1671.01 773.195C1655.46 781.88 1638.23 790.901 1621.46 796.91L1620.94 796.996C1588.66 713.206 1538.24 639.457 1474.4 576.542C1471.64 573.754 1468.82 571.022 1465.95 568.348C1341.15 452.436 1175.91 390.032 1005.64 394.512C879.268 398.922 763.739 437.487 658.698 507.454C631.543 525.541 602.162 546.604 579.827 570.516L571.768 578.207C552.434 593.654 523.539 627.134 510.177 647.715C482.132 679.339 451.12 739.206 433.617 778.296C428.974 791.453 423.101 804.171 418.344 817.297C406.011 851.327 395.308 888.872 390.16 924.707C389.083 935.536 386.96 946.244 385.672 957.054C383.372 976.525 382.012 996.096 381.595 1015.7C381.487 1020.34 381.949 1026.47 380.355 1030.83L381.097 1031.68C367.36 1032.5 328.934 1029.71 319.048 1032.96C321.643 1025.63 322.241 1000.46 323.509 990.797C328.116 955.688 333.208 920.403 341.118 885.865C344.604 872.619 347.137 859.117 350.889 845.937C364.11 799.502 384.767 744.23 408.296 702.143Z"/>
	<path fill="#17B4C7" d="M408.296 702.143L409.677 704.66C416.059 700.635 441.797 636.668 458.487 623.773C459.216 626.468 458.794 628.972 458.742 631.718C458.701 633.895 458.622 633.084 459.594 635.201L461.508 635.3L462.744 635.382C464.58 635.491 463.38 635.44 465.018 635.413C469.466 635.34 484.327 641.967 486.908 645.688C491.762 652.685 486.579 670.233 483.69 677.305C477.622 692.159 467.559 706.326 459.613 720.28C454.122 729.921 449.691 739.977 444.442 749.698C440.482 757.029 434.276 764.492 432.754 772.813C432.396 774.77 433.034 776.454 433.617 778.296C428.974 791.453 423.101 804.171 418.344 817.297C406.011 851.327 395.308 888.872 390.16 924.707C389.083 935.536 386.96 946.244 385.672 957.054C383.372 976.525 382.012 996.096 381.595 1015.7C381.487 1020.34 381.949 1026.47 380.355 1030.83L381.097 1031.68C367.36 1032.5 328.934 1029.71 319.048 1032.96C321.643 1025.63 322.241 1000.46 323.509 990.797C328.116 955.688 333.208 920.403 341.118 885.865C344.604 872.619 347.137 859.117 350.889 845.937C364.11 799.502 384.767 744.23 408.296 702.143Z"/>
	<path fill="#108EA0" d="M341.118 885.865C342.268 904.282 337.532 922.675 334.435 940.759C331.525 958.202 328.827 975.679 326.342 993.188C324.73 1004.89 325.087 1016.94 322.613 1028.51C341.61 1028.48 360.553 1029.51 379.51 1029.51C379.155 1011.28 379.481 943.514 387.038 929.751C388.024 927.955 388.862 926.307 390.16 924.707C389.083 935.536 386.96 946.244 385.672 957.054C383.372 976.525 382.012 996.096 381.595 1015.7C381.487 1020.34 381.949 1026.47 380.355 1030.83L381.097 1031.68C367.36 1032.5 328.934 1029.71 319.048 1032.96C321.643 1025.63 322.241 1000.46 323.509 990.797C328.116 955.688 333.208 920.403 341.118 885.865Z"/>
	<path fill="#13BFC4" d="M844.199 549.605C841.082 549.536 838.576 550.529 835.679 549.349C873.568 533.017 927.767 519.455 969.188 518.759C975.308 512.307 992.834 519.976 1000.91 513.639C1002.38 512.486 1001.79 509.63 1001.81 507.897C1002.09 484.354 1001.01 460.604 1005.26 437.33C1006.33 445.292 1005.84 453.73 1005.9 461.786C1006.04 480.959 1005.48 500.436 1006.61 519.563C967.899 521.12 928.782 525.578 891.218 535.331C875.37 539.446 859.992 545.646 844.199 549.605Z"/>
	<path fill="#061829" d="M1324.41 519.402C1330.15 520.332 1338.7 527.441 1343.8 530.715L1318.26 571.908C1312.5 570.738 1304.51 563.43 1299.6 559.942C1308.11 546.598 1316.08 532.862 1324.41 519.402Z"/>
	<path fill="#0C1F2F" d="M720.418 518.719C726.539 522.386 742.925 552.649 747.507 560.094C741.557 563.633 735.869 567.796 730.148 571.699C724.603 564.635 706.082 538.54 704.83 530.539C708.922 525.753 715.433 522.686 720.418 518.719Z"/>
	<path fill="#196B84" d="M579.827 570.516L580.21 572.462C579.425 575.016 578.527 577.082 577.262 579.436C577.226 581.404 577.368 582.517 578.305 584.306C582.058 591.468 590.011 598.176 595.634 604.039C610.444 619.478 649.314 656.851 658.413 672.73C631.462 695.266 592.367 753.558 575.524 785.488C567.626 800.461 561.417 816.25 553.597 831.183C535.951 824.37 512.156 813.451 494.417 808.934C491.542 815.793 488.385 822.657 486.004 829.699C503.915 835.508 529.012 843.341 545.272 852.309C527.924 893.814 518.589 941.116 514.374 985.78C513.764 992.245 512.048 1002.87 513.841 1008.96C525.759 1008.69 537.949 1008.54 549.85 1009.29C549.922 1017.28 549.979 1025.24 549.621 1033.22C535.884 1035.6 519.875 1033.99 505.873 1033.93C485.233 1033.84 464.211 1034.53 443.62 1033.4C443.765 1038.98 444.198 1044.71 443.842 1050.29C442.869 1044.6 443.017 1038.65 442.843 1032.89C423.321 1032.47 403.885 1032.24 384.357 1032.32L381.097 1031.68L380.355 1030.83C381.949 1026.47 381.487 1020.34 381.595 1015.7C382.012 996.096 383.372 976.525 385.672 957.054C386.96 946.244 389.083 935.536 390.16 924.707C395.308 888.872 406.011 851.327 418.344 817.297C423.101 804.171 428.974 791.453 433.617 778.296C451.12 739.206 482.132 679.339 510.177 647.715C523.539 627.134 552.434 593.654 571.768 578.207L579.827 570.516Z"/>
	<path fill="#108EA0" d="M443.756 1031.34C442.996 1025.04 441.168 1016.33 445.189 1010.95C455.926 1007.16 500.318 1008.41 513.841 1008.96C525.759 1008.69 537.949 1008.54 549.85 1009.29C549.922 1017.28 549.979 1025.24 549.621 1033.22C538.892 1032.24 527.689 1032.78 516.917 1032.73C492.565 1032.62 468.062 1033 443.756 1031.34Z"/>
	<path fill="#10627C" d="M571.768 578.207C571.488 580.979 571.605 582.281 569.819 584.602C564.047 592.104 555.974 598.761 549.433 605.68C536.854 618.985 524.706 632.888 512.878 646.867L510.177 647.715C523.539 627.134 552.434 593.654 571.768 578.207Z"/>
	<path fill="#061829" d="M458.366 909.512C475.207 910.797 493.363 916.675 509.869 920.579C508.329 927.209 506.394 933.637 504.326 940.12C499.26 942.088 463.495 933.233 455.019 931.812C455.677 924.305 457.057 916.928 458.366 909.512Z"/>
	<path fill="#061829" d="M547.066 715.381C554.731 716.197 579.895 736.247 587.865 742.035C583.848 747.079 580.517 752.543 577.094 757.997C570.343 757.491 543.776 736.763 536.3 731.65C539.816 726.179 543.404 720.756 547.066 715.381Z"/>
	<defs>
		<linearGradient id="gradient_4" gradientUnits="userSpaceOnUse" x1="1654.3104" y1="910.95599" x2="1520.7252" y2="948.17212">
			<stop offset="0" stop-color="#B2BDC0"/>
			<stop offset="1" stop-color="#D4D2D1"/>
		</linearGradient>
	</defs>
	<path fill="url(#gradient_4)" d="M1671.01 773.195C1680.31 797.566 1689.21 822.171 1696.23 847.311C1691.52 844.744 1691.61 840.92 1689.39 836.238L1687.49 836.957C1687.33 837.5 1687.18 838.044 1687.01 838.584C1685.45 843.657 1681.2 846.151 1678.8 850.481C1677.03 853.655 1676.7 892.253 1676.01 899.128C1675.01 909.117 1671.3 918.732 1669.92 928.66C1669.13 934.368 1670.33 940.216 1669.49 945.869C1668.68 951.24 1665.87 956.527 1665.8 961.999C1665.69 970.322 1667 978.911 1667.31 987.264C1667.8 1000.54 1668.31 1049.09 1665.01 1059.6C1664.25 1051.01 1664.61 1042.1 1664.51 1033.47C1649.88 1032.87 1635.07 1033.64 1620.48 1032.28C1615.23 1032.4 1609.14 1032 1604.02 1032.92C1606.84 1027.04 1605.12 1016.03 1604.89 1009.48C1583.46 1009.02 1556.01 1011.49 1535.46 1008.43C1533.22 1006.42 1533.77 1005.03 1533.53 1002.17C1530.79 950.181 1520 898.935 1501.54 850.258C1541.53 833.622 1581.83 815.644 1620.94 796.996L1621.46 796.91C1638.23 790.901 1655.46 781.88 1671.01 773.195Z"/>
	<path fill="#B9D6E3" d="M1671.01 773.195C1680.31 797.566 1689.21 822.171 1696.23 847.311C1691.52 844.744 1691.61 840.92 1689.39 836.238L1687.49 836.957C1687.33 837.5 1687.18 838.044 1687.01 838.584C1685.45 843.657 1681.2 846.151 1678.8 850.481C1677.03 853.655 1676.7 892.253 1676.01 899.128C1675.01 909.117 1671.3 918.732 1669.92 928.66C1669.13 934.368 1670.33 940.216 1669.49 945.869C1668.68 951.24 1665.87 956.527 1665.8 961.999C1665.69 970.322 1667 978.911 1667.31 987.264C1667.8 1000.54 1668.31 1049.09 1665.01 1059.6C1664.25 1051.01 1664.61 1042.1 1664.51 1033.47C1649.88 1032.87 1635.07 1033.64 1620.48 1032.28C1635.06 1031.14 1650.27 1031.9 1664.93 1031.74C1668.16 962.094 1648.42 860.936 1621.46 796.91C1638.23 790.901 1655.46 781.88 1671.01 773.195Z"/>
	<path fill="#0C1F2F" d="M1584.82 909.278C1588.37 913.339 1589.33 925.842 1590.56 931.457C1574.8 934.351 1559.16 937.998 1543.52 941.445C1540.38 935.558 1539.16 927.102 1536.91 920.591C1553 917.531 1568.66 912.222 1584.82 909.278Z"/>
	<path fill="#F47145" d="M1533.53 1002.17C1533.77 1005.03 1533.22 1006.42 1535.46 1008.43C1556.01 1011.49 1583.46 1009.02 1604.89 1009.48C1605.12 1016.03 1606.84 1027.04 1604.02 1032.92L1603.32 1045.4C1603.28 1041.69 1603.92 1037.16 1602.09 1033.83C1591.38 1031.46 1577.58 1033.05 1566.55 1033.12C1544.08 1033.31 1521.61 1033.38 1499.14 1033.33C1499.06 1025.2 1499.06 1017.15 1499.62 1009.03C1508.03 1008.65 1527.07 1011.61 1533.2 1006.5L1533.53 1002.17Z"/>
	<defs>
		<linearGradient id="gradient_5" gradientUnits="userSpaceOnUse" x1="998.53772" y1="1431.9611" x2="1046.2443" y2="676.02979">
			<stop offset="0" stop-color="#659FB9"/>
			<stop offset="1" stop-color="#10FFFF"/>
		</linearGradient>
	</defs>
	<path fill="url(#gradient_5)" d="M1161.94 713.238C1150.7 718.46 1139.55 726.439 1127.95 730.341C1123.35 731.89 1119.07 729.26 1115.01 727.144C1107.55 723.257 1079.48 709.936 1077.04 702.107C1086.17 694.379 1112.57 681.927 1124.41 676.292C1133.17 680.59 1141.7 685.338 1149.97 690.515C1161.7 696.731 1172.4 704.432 1183.82 711.123C1202.27 721.922 1221.28 731.962 1239.98 742.308L1303.99 777.58C1322.24 787.484 1342.97 797.254 1359.06 810.528C1367.94 817.842 1374.5 827.581 1377.94 838.557C1378.45 840.241 1378.8 841.883 1379.08 843.616C1381.78 857.138 1380.19 873.307 1380.16 887.163L1380 964.655L1379.96 1130.25C1379.93 1158.71 1380.54 1187.32 1379.63 1215.76C1379.5 1217.9 1379.18 1220 1378.81 1222.12C1375.92 1239.04 1365.2 1253.57 1351.3 1263.19C1333.9 1275.23 1313.91 1284.88 1295.41 1295.17L1192.71 1352.42L1101.95 1403.16C1085.73 1412.24 1069.06 1423.33 1051.78 1430.04C1039.39 1434.85 1024.48 1437.06 1011.41 1434.37C1005.31 1433.12 999.773 1430.82 994.208 1428.08C974.478 1418.35 955.531 1406.77 936.278 1396.13L825.982 1335.3L741.713 1289.14C727.212 1281.09 712.132 1273.4 698.263 1264.3C689.659 1258.65 682.852 1251.98 677.367 1243.27C671.71 1234.28 669.354 1225.23 668.496 1214.72C666.554 1190.89 668.044 1165.81 668.058 1141.86L668.186 1002.72L668.039 900.343C668.007 880.651 665.651 857.64 670.077 838.407C673.838 822.067 685.029 811.461 698.717 803.004L697.025 799.638C697.312 799.036 697.54 798.401 697.887 797.831C699.962 794.42 704.508 792.296 708.356 791.954C710.025 791.806 711.463 793.606 712.723 794.632C721.096 789.689 729.732 785.123 738.156 780.247L736.504 778.943C736.569 778.71 737.061 776.888 737.201 776.59C738.507 773.813 741.886 772.014 744.593 770.912C748.949 769.14 750.68 769.482 754.818 771.287L760.887 767.992C759.432 767.393 758.762 766.866 757.583 765.867C758.777 760.818 769.005 759.151 772.955 755.843L773.072 753.1L775.994 750.556C773.685 749.026 771.044 748.102 768.765 746.481C766.628 744.963 766.459 744.875 766.054 742.4L764.57 740.152C766.091 737.198 768.974 735.515 771.656 733.701C775.983 730.775 783.157 726.068 788.363 727.103L789.215 729.602C793.098 727.765 795.394 726.683 799.686 728.353C803.785 729.948 807.484 733.717 811.21 736.097C824.451 730.115 836.346 721.422 849.541 715.398C863.009 721.121 875.874 728.463 888.808 735.293C877.405 741.73 865.187 747.938 854.411 755.341C857.492 756.955 860.582 758.768 863.861 759.927C869.143 765.994 867.142 775.398 867.068 783.132C870.112 779.372 872.487 777.506 876.639 775.15C881.728 772.263 893.764 764.509 899.412 766.072L900.105 768.55C915.831 760.598 931.219 751.994 946.228 742.761C948.136 741.953 947.517 741.935 949.222 742.023C950.588 742.094 951.931 742.176 953.301 742.201L954.247 740.569C960.263 735.165 1004.34 710.665 1013.05 707.299C1017.7 705.5 1022.45 704.276 1027.47 704.661C1032.07 705.014 1036.35 706.651 1040.47 708.626C1053.7 714.968 1066.43 722.892 1079.31 729.964L1157.49 772.941L1221.27 808.436C1237.93 817.525 1255.13 826.196 1271.25 836.199C1276.07 839.193 1280.86 842.676 1284.52 847.051C1289.89 853.464 1292.35 862.249 1291.44 870.523C1290.52 878.801 1286.76 885.401 1280.18 890.425C1265.74 901.447 1246.66 909.306 1230.68 918.114L1126.48 975.709C1106.85 986.473 1085.51 996.537 1066.98 1009.02C1063 1011.7 1055.59 1016.69 1054.44 1021.5C1052.4 1030.03 1054.03 1042.77 1054.04 1051.77L1054.12 1126.48L1054.12 1287.09C1054.13 1310.98 1052.84 1335.46 1053.95 1359.26C1054.13 1363.06 1054.75 1367.6 1057.43 1370.55C1060.48 1373.9 1064.59 1375.14 1069.04 1375.15C1073.97 1375.16 1078.68 1373.59 1083.08 1371.47C1107.42 1359.75 1130.91 1344.19 1154.53 1330.94L1258.64 1272.33C1278.98 1260.89 1321.29 1240.85 1335.69 1225.63C1339.06 1222.08 1340.31 1219.76 1341.02 1214.89C1343.84 1195.48 1341.63 1166.24 1341.66 1145.84C1341.72 1099.17 1342.53 1052.37 1341.67 1005.71C1338.25 1002.15 1342.07 978.545 1339.71 971.902C1337.04 983.051 1341.41 1040.45 1338.23 1044.21C1336.17 1028.23 1337.95 1005.44 1337.74 988.559C1337.55 972.366 1336.61 956.15 1336.67 939.961C1336.72 923.029 1337.75 906.085 1337.78 889.137C1337.81 879.707 1336.65 870.362 1336.88 860.93L1338.37 863.54C1339.82 860.416 1339.73 855.03 1340.14 851.519C1340.03 850.943 1339.95 850.359 1339.8 849.793C1337.11 839.763 1325.28 833.706 1317.12 828.706C1305.37 822.997 1294.04 816.205 1282.56 809.965C1242.66 788.285 1203.22 764.928 1162.22 745.444C1160.83 734.522 1160.79 724.186 1161.94 713.238Z"/>
	<path fill="#1CE9EB" d="M1161.94 713.238C1150.7 718.46 1139.55 726.439 1127.95 730.341C1123.35 731.89 1119.07 729.26 1115.01 727.144C1107.55 723.257 1079.48 709.936 1077.04 702.107C1086.17 694.379 1112.57 681.927 1124.41 676.292C1133.17 680.59 1141.7 685.338 1149.97 690.515C1149.39 690.523 1148.8 690.55 1148.21 690.54C1143.93 690.463 1139.65 688.693 1135.92 686.713C1133.18 685.265 1130.24 683.235 1127.29 682.332C1119 679.801 1106.05 690.049 1098.93 693.568C1094.55 695.738 1090.72 700.591 1088.02 704.566C1089.42 708.669 1110.5 719.749 1115.23 722.058C1118.84 723.817 1124.38 727.071 1128.34 725.848C1136.92 723.193 1154.78 707.575 1162.5 710.924C1164.26 711.689 1164.39 712.478 1165.37 714.025C1166.24 725.143 1161.18 734.852 1171.08 743.657C1180.54 752.073 1196.99 757.356 1208.29 763.218C1224.52 771.631 1239.98 781.335 1256.03 790.003C1272.62 798.961 1298.78 811.214 1312.95 822.565C1315.14 824.324 1316.13 826.074 1317.12 828.706C1305.37 822.997 1294.04 816.205 1282.56 809.965C1242.66 788.285 1203.22 764.928 1162.22 745.444C1160.83 734.522 1160.79 724.186 1161.94 713.238Z"/>
	<path fill="#1CE9EB" d="M1379.08 843.616C1381.78 857.138 1380.19 873.307 1380.16 887.163L1380 964.655L1379.96 1130.25C1379.93 1158.71 1380.54 1187.32 1379.63 1215.76L1377.94 1214.94C1375.69 1200.76 1376.04 1185.83 1375.69 1171.51C1375.3 1155.23 1374.35 1138.75 1374.72 1122.47C1375.37 1094.14 1377.67 1065.87 1378 1037.53L1378.87 914.781C1378.87 891.212 1377.68 867.131 1379.08 843.616Z"/>
	<path fill="#0C1F2F" d="M1340.14 851.519C1343.53 869.792 1341.72 890.65 1341.72 909.21L1341.67 1005.71C1338.25 1002.15 1342.07 978.545 1339.71 971.902C1337.04 983.051 1341.41 1040.45 1338.23 1044.21C1336.17 1028.23 1337.95 1005.44 1337.74 988.559C1337.55 972.366 1336.61 956.15 1336.67 939.961C1336.72 923.029 1337.75 906.085 1337.78 889.137C1337.81 879.707 1336.65 870.362 1336.88 860.93L1338.37 863.54C1339.82 860.416 1339.73 855.03 1340.14 851.519Z"/>
	<path fill="#12172E" d="M867.068 783.132C870.112 779.372 872.487 777.506 876.639 775.15C881.728 772.263 893.764 764.509 899.412 766.072L900.105 768.55C891.417 774.415 878.317 777.889 870.935 784.904C869.937 785.17 868.993 785.171 867.965 785.223L867.068 783.132Z"/>
	<path fill="#12172E" d="M775.994 750.556C778.887 751.713 780.612 751.717 782.035 754.569C779.076 760.512 766.736 764.551 760.887 767.992C759.432 767.393 758.762 766.866 757.583 765.867C758.777 760.818 769.005 759.151 772.955 755.843L773.072 753.1L775.994 750.556Z"/>
	<path fill="#12172E" d="M766.054 742.4L764.57 740.152C766.091 737.198 768.974 735.515 771.656 733.701C775.983 730.775 783.157 726.068 788.363 727.103L789.215 729.602C781.57 734.043 773.916 738.354 766.054 742.4Z"/>
	<path fill="#1CE9EB" d="M863.861 759.927C869.143 765.994 867.142 775.398 867.068 783.132L867.965 785.223C868.993 785.171 869.937 785.17 870.935 784.904C870.293 787.352 870.399 787.779 868.445 789.318C867.042 788.967 866.054 788.629 864.995 787.553C859.199 781.665 864.458 768.406 863.945 760.895C863.922 760.572 863.889 760.25 863.861 759.927Z"/>
	<path fill="#12172E" d="M738.156 780.247L736.504 778.943C736.569 778.71 737.061 776.888 737.201 776.59C738.507 773.813 741.886 772.014 744.593 770.912C748.949 769.14 750.68 769.482 754.818 771.287L749.856 773.808C746.744 775.506 743.616 777.174 740.588 779.02L738.156 780.247Z"/>
	<path fill="#12172E" d="M698.717 803.004L697.025 799.638C697.312 799.036 697.54 798.401 697.887 797.831C699.962 794.42 704.508 792.296 708.356 791.954C710.025 791.806 711.463 793.606 712.723 794.632C708.049 797.388 703.257 800.036 698.717 803.004Z"/>
	<path fill="#1CE9EB" d="M749.856 773.808C751.633 773.996 755.279 773.836 756.503 775.025C756.096 775.095 755.675 775.109 755.281 775.234C749.608 777.04 749.813 782.923 742.418 781.217L740.588 779.02C743.616 777.174 746.744 775.506 749.856 773.808Z"/>
	<path fill="#061829" d="M824.653 776.424C824.094 784.334 826.947 807.392 821.611 812.375C818.062 815.689 812.716 817.793 808.433 820.01C790.3 829.395 759.465 840.333 758.059 864.262C757.545 873.009 760.667 881.086 766.484 887.57C777.669 900.039 798.277 907.033 812.833 915.005C853.931 937.646 895.2 959.973 936.639 981.983C959.035 993.983 983.507 1005.15 1004.57 1019.24C1009.58 1022.58 1012.69 1025.91 1016 1030.95C1017.5 1049.68 1016.37 1069.02 1016.32 1087.83L1016.25 1187.33L1016.46 1301.26C1016.5 1320.85 1017.51 1340.94 1016.27 1360.44C1016.02 1364.25 1015.55 1367.06 1013.01 1370.05C1007.77 1376.18 997.791 1378.49 990.199 1380.17C974.581 1375.63 958.616 1364.87 944.328 1357.12C912.76 1339.98 881.327 1322.6 850.03 1304.97L771.791 1261.54C755.236 1252.34 738.101 1243.51 722.38 1232.93C716.996 1229.3 712.611 1225.07 709.384 1219.39C707.296 1215.71 707.013 1211.57 706.758 1207.42C705.409 1185.45 706.67 1162.78 706.69 1140.74L706.728 1018.69C706.731 997.973 707.314 977.095 706.676 956.402C707.501 931.953 706.845 907.188 706.69 882.714C706.713 869.55 704.324 850.84 714.339 840.719C727.312 827.609 761.57 811.508 778.465 802.059C793.803 793.48 808.808 784.024 824.653 776.424Z"/>
	<defs>
		<linearGradient id="gradient_6" gradientUnits="userSpaceOnUse" x1="849.62268" y1="1024.1178" x2="919.12573" y2="1317.4204">
			<stop offset="0" stop-color="#FFCB38"/>
			<stop offset="1" stop-color="#E13F52"/>
		</linearGradient>
	</defs>
	<path fill="url(#gradient_6)" d="M863.018 1013.44C888.322 1034.03 922.758 1061.04 926.107 1095.96C927.518 1110.68 924.044 1126.33 930.252 1140.3C934.51 1149.87 941.644 1157.29 948.976 1164.56C973.623 1189.02 990.58 1204.84 989.609 1241.81C989.114 1260.68 982.972 1276.3 970.927 1290.78C962.533 1300.87 952.518 1309.45 942.345 1317.69L860.249 1272.44C845.517 1264.33 830.138 1256.65 815.923 1247.69C811.741 1245.68 807.7 1243.3 803.631 1241.07C787.657 1233.97 766.934 1223.67 756.475 1209.31C748.012 1197.69 745.424 1181.97 748.126 1168C752.483 1145.47 788.268 1106.9 807.097 1094.24C805.356 1110.92 805.136 1129.52 815.177 1143.8C815.402 1143.48 815.623 1143.16 815.851 1142.84C825.137 1129.91 837.606 1118.83 848.642 1107.41C853.394 1102.5 858.262 1097.02 860.502 1090.45C865.526 1075.72 863.044 1030.91 863.018 1013.44Z"/>
	<path fill="#E04C4C" d="M803.631 1241.07C787.657 1233.97 766.934 1223.67 756.475 1209.31C748.012 1197.69 745.424 1181.97 748.126 1168C752.483 1145.47 788.268 1106.9 807.097 1094.24C805.356 1110.92 805.136 1129.52 815.177 1143.8C802.393 1158.21 798.86 1175.51 800.064 1194.28C800.76 1205.14 803.836 1214.52 806.658 1224.85C809.214 1230.18 817.75 1242.34 815.923 1247.69C811.741 1245.68 807.7 1243.3 803.631 1241.07Z"/>
	<path fill="#FECD49" d="M881.787 1142.44C882.363 1142.85 883.159 1143.05 883.517 1143.65C885.754 1147.43 888.327 1164.87 892.709 1172.66C904.278 1193.24 934.464 1204.83 939.645 1228.14C943.092 1243.65 935.115 1256.98 927.245 1269.53C922.639 1265.16 918.242 1261.28 912.875 1257.86C898.359 1248.97 882.208 1242.98 867.565 1234.31C857.334 1228.25 847.818 1219.68 844.996 1207.66C839.352 1183.61 869.701 1161.15 881.787 1142.44Z"/>
	<path fill="#FC9640" d="M793.582 992.211C796.617 992.132 799.139 992.326 802.052 993.263C807.912 995.147 813.064 998.563 815.781 1004.22C818.124 1009.09 818.371 1014.71 816.466 1019.76C813.208 1028.33 806.35 1032.12 798.337 1035.43C794.649 1035.7 791.492 1035.28 788.067 1033.79C782.821 1031.5 778.865 1027.97 776.836 1022.53C774.662 1016.7 775.165 1010.41 777.919 1004.87C781.372 997.918 786.486 994.75 793.582 992.211Z"/>
	<path fill="#FC9640" d="M961.325 1050.18C962.674 1050.09 964.171 1049.93 965.532 1050.03C968.889 1050.29 972.222 1051.72 974.272 1054.5C975.866 1056.66 976.089 1058.82 975.654 1061.4C974.951 1065.56 971.807 1067.74 968.602 1069.97C967.745 1070.01 966.887 1070.06 966.029 1070.06C962.145 1070.07 958.309 1069.01 955.766 1065.89C954.156 1063.92 953.531 1061.32 954.069 1058.83C954.959 1054.76 958.072 1052.37 961.325 1050.18Z"/>
	<path fill="#FC9640" d="M751.786 1060.64C755.181 1059.15 759.115 1059.62 762.067 1061.86C765.02 1064.1 766.529 1067.76 766.011 1071.43C765.493 1075.1 763.03 1078.2 759.572 1079.54C754.387 1081.54 748.551 1079.04 746.434 1073.9C744.317 1068.76 746.694 1062.87 751.786 1060.64Z"/>
	<path fill="#061829" d="M1023.32 742.555C1038.06 746.375 1062.21 762.1 1076.1 769.722L1184.46 829.683C1204.58 840.909 1227.55 850.714 1245.83 864.581C1241.46 868.505 1236.66 872.075 1231.29 874.475C1224.47 878.327 1217.67 882.589 1210.59 885.944C1170.49 907.411 1130.8 929.813 1091.05 951.924C1070.2 963.519 1049.25 976.592 1027.44 986.252C1007.75 979.629 982.242 963.355 963.084 952.914L854.587 894.268C846.344 889.779 814.083 873.812 809.493 869.774C807.34 867.88 807.366 867.309 807.25 864.653C808.878 861.652 810.682 859.885 813.575 858.039C828.843 848.296 845.585 840.046 861.422 831.175L960.301 776.258C979.43 765.799 1003.08 748.939 1023.32 742.555Z"/>
	<path fill="#12172E" d="M1210.59 885.944L1208.45 884.579L1209.11 882.274C1213.56 878.268 1219.25 874.236 1225.25 873.062C1227.76 872.571 1229.24 873.157 1231.29 874.475C1224.47 878.327 1217.67 882.589 1210.59 885.944Z"/>
	<path fill="#1CE9EB" d="M1038.79 815.778C1050.81 816.943 1109.38 852.156 1124.89 860.575C1130.87 863.823 1139.61 867.073 1141.67 874.031C1141.43 877.385 1140.26 879.391 1138.59 882.266C1135.51 883.092 1132.98 883.907 1129.85 882.699C1118.98 878.501 1108.02 871.047 1097.81 865.393C1079.36 855.182 1058.02 845.604 1041.34 832.827C1039.25 831.229 1038.03 829.71 1037.16 827.247C1035.61 822.902 1037.05 819.751 1038.79 815.778Z"/>
	<path fill="#1CE9EB" d="M1026.5 876.725C1029.04 877.507 1032.2 878.822 1033.79 881.106C1035.33 883.333 1035.19 884.301 1034.91 886.801C1032.14 891.691 983.164 918.621 975.712 921.369C973.963 921.083 971.11 920.658 969.606 919.603C967.167 917.89 967.169 916.918 966.705 914.194C969.873 903.78 1015.29 882.785 1026.5 876.725Z"/>
	<path fill="#17B4C7" d="M952.365 827.461C958.906 825.477 965.815 829.174 967.795 835.716C969.775 842.257 966.075 849.165 959.532 851.142C952.995 853.117 946.093 849.42 944.114 842.883C942.136 836.346 945.829 829.443 952.365 827.461Z"/>
	<path fill="#FECD49" d="M905.717 864.353C909.909 863.565 914.198 865.108 916.927 868.386C919.656 871.663 920.397 876.161 918.863 880.141C917.33 884.121 913.761 886.958 909.539 887.556C903.209 888.453 897.323 884.13 896.284 877.823C895.245 871.515 899.435 865.533 905.717 864.353Z"/>
	<path fill="#8FBCD6" d="M1063.99 919.478C1069.8 917.095 1076.44 919.861 1078.83 925.662C1081.23 931.462 1078.48 938.108 1072.69 940.519C1066.87 942.938 1060.2 940.177 1057.79 934.357C1055.39 928.536 1058.16 921.869 1063.99 919.478Z"/>
	<path fill="#1CE9EB" d="M706.676 956.402C704.316 964.078 705.501 974.297 705.518 982.357L705.614 1031.95C705.622 1042.59 706.322 1053.69 704.666 1064.21C704.389 1065.97 704.214 1067.66 704.071 1069.43C704.382 1062.22 702.321 1055.1 702.264 1047.88C702.09 1025.69 701.812 882.497 705.413 875.192L705.609 880.994L706.69 882.714C706.845 907.188 707.501 931.953 706.676 956.402Z"/>
	<path fill="#13BFC4" d="M1260.4 969.877C1259.56 963.494 1258.8 957.296 1260.75 951.031C1263.12 943.381 1268.44 937.232 1275.57 933.608C1283.94 929.403 1293.67 928.813 1302.49 931.976C1309.9 934.653 1316.32 940.28 1319.59 947.494C1324.05 957.297 1321.98 966.298 1318.34 975.838L1322.01 973.936C1322.95 975.151 1323.22 974.9 1322.9 976.275C1322.4 978.387 1319.99 981.671 1318.04 982.716C1317.71 982.893 1317.34 982.988 1317 983.139C1315.52 983.785 1314.06 984.514 1312.59 985.19L1311.32 983.877L1302.23 989.097C1302.26 1005.8 1302.16 1022.5 1301.93 1039.19C1303.1 1058.36 1302.32 1078.15 1301.95 1097.35C1302.82 1116.91 1302.21 1136.69 1302.15 1156.27C1302.1 1172.55 1302.74 1189.19 1301.8 1205.43C1287.93 1212.93 1274.21 1220.69 1260.65 1228.72C1252.22 1233.72 1243.17 1240.24 1234.14 1243.89C1232.5 1244.56 1231.3 1244.75 1229.58 1244.23C1225.85 1243.12 1224.21 1239.64 1222.39 1236.49L1220.12 1235.48C1210.98 1244.86 1193.7 1251.64 1182.58 1259.6C1183.38 1268.69 1183.5 1277.64 1177.38 1285.14C1172.18 1291.52 1163.2 1295.87 1155.05 1296.49C1147.57 1297.06 1140.47 1294.45 1134.96 1289.39C1129.18 1284.1 1125.81 1276.68 1125.65 1268.84C1125.44 1260.92 1128.3 1252.73 1133.98 1247.11C1139.78 1241.39 1147.51 1239.31 1155.48 1239.5C1160.82 1239.64 1165.5 1241.51 1170.41 1243.4L1166.91 1239.47L1167.32 1238.22C1169.91 1237.56 1172.94 1238.62 1175.39 1239.76C1176.21 1240.15 1176.49 1240.44 1177.11 1240.98L1177.35 1243.48C1182.32 1237.29 1218.93 1217.8 1229.16 1210.1C1229.7 1168.79 1227.24 1126.7 1229.77 1085.53C1220.22 1092.54 1209.24 1098.02 1198.92 1103.82L1145.81 1133.28C1145.99 1139.42 1146.38 1145.14 1144.19 1151.01C1141.3 1158.74 1135.77 1163.84 1128.31 1167.21C1121.27 1170.39 1113.48 1171.43 1106.2 1168.35C1099.6 1165.56 1094.42 1159.94 1091.73 1153.35C1088.75 1146.04 1088.94 1137.47 1092.03 1130.22C1095.08 1123.11 1100.59 1117.51 1107.95 1114.93C1118.84 1111.11 1127.89 1114.8 1137.58 1119.61C1167.14 1101.41 1198.61 1086.21 1228.55 1068.61C1228.57 1063.92 1228.01 1057.91 1230.06 1053.6C1231.33 1050.93 1233.54 1048.91 1236.51 1048.32C1239 1047.83 1241.43 1048.57 1243.31 1050.24C1245.13 1051.86 1245.66 1054.27 1245.91 1056.59C1247.62 1072.32 1246.24 1089.64 1246.22 1105.53L1246.1 1204.11L1258.01 1212.32C1267.31 1208.14 1276.08 1202.82 1284.93 1197.78C1285.03 1162.5 1284.9 1127.21 1284.55 1091.94C1284.47 1075.09 1283.26 1057.44 1284.91 1040.74C1283.6 1024.01 1284.84 1006.49 1284.26 989.633C1279.07 987.942 1274.64 985.608 1269.89 982.976C1247.28 996.479 1223.46 1008.1 1200.65 1021.34L1201.75 1024.49C1199.84 1027.18 1199.63 1027.73 1196.6 1028.91L1194.54 1028.6L1193.22 1026.74C1192.47 1027.39 1189.33 1043.27 1186.7 1047.52C1182.81 1053.82 1176.37 1058.01 1169.23 1059.72C1159.87 1061.97 1150.59 1060.17 1142.53 1055C1135.92 1050.77 1131.34 1044.23 1130 1036.45C1128.62 1028.28 1130.73 1019.9 1135.83 1013.37C1141.07 1006.4 1148.95 1001.89 1157.62 1000.92C1168.85 999.76 1177.73 1004.46 1186.23 1011.16C1200.21 1002.41 1215.19 994.151 1229.91 986.714C1240.11 981.164 1250.14 975.332 1260.4 969.877Z"/>
	<path fill="#1CE9EB" d="M1260.4 969.877C1259.56 963.494 1258.8 957.296 1260.75 951.031C1263.12 943.381 1268.44 937.232 1275.57 933.608C1283.94 929.403 1293.67 928.813 1302.49 931.976C1309.9 934.653 1316.32 940.28 1319.59 947.494C1324.05 957.297 1321.98 966.298 1318.34 975.838L1322.01 973.936C1322.95 975.151 1323.22 974.9 1322.9 976.275C1322.4 978.387 1319.99 981.671 1318.04 982.716C1317.71 982.893 1317.34 982.988 1317 983.139C1315.52 983.785 1314.06 984.514 1312.59 985.19L1311.32 983.877L1302.23 989.097C1302.26 1005.8 1302.16 1022.5 1301.93 1039.19C1299.81 1046.94 1304 1062.17 1299.47 1068.29C1298.77 1067.25 1298.61 1067.21 1298.28 1066.16C1295.97 1058.96 1299.88 1048.71 1299.84 1040.94C1299.76 1026.8 1295.97 1003.15 1298.99 990.244C1300.53 983.649 1306 981.339 1309.33 975.601L1306.84 973.346C1303.42 973.053 1302.68 973.762 1299.72 975.4C1298.81 975.904 1297.99 976.454 1297.02 976.824C1288.68 980.02 1278.48 974.85 1271.14 970.97C1268.94 969.806 1268.06 969.034 1267.4 966.668L1268.24 965.808C1267.85 966.703 1267.32 967.622 1266.86 968.492L1267.52 968.466C1267.14 968.722 1266.7 968.913 1266.37 969.235C1264.58 970.956 1263.15 972.961 1261.13 974.697L1260.41 975.3C1257.91 977.372 1255.35 979.011 1252.66 980.809C1251.07 981.875 1251.62 981.475 1250.37 983.301C1253.48 984.677 1256.43 983.726 1259.67 983.164C1260 982.768 1260.36 982.395 1260.67 981.978C1262.15 979.944 1262.27 978.54 1262.68 976.129C1263.95 975.647 1265.02 974.799 1266.35 975.367C1268.17 976.138 1269.27 977.569 1270.59 978.976C1270.94 979.04 1271.3 979.1 1271.64 979.169C1276.42 980.102 1284.08 982.605 1286.43 987.419C1288.46 991.605 1288.65 1087.94 1286.56 1093.3C1284.49 1076.11 1287.05 1058.14 1284.91 1040.74C1283.6 1024.01 1284.84 1006.49 1284.26 989.633C1279.07 987.942 1274.64 985.608 1269.89 982.976C1247.28 996.479 1223.46 1008.1 1200.65 1021.34L1201.75 1024.49C1199.84 1027.18 1199.63 1027.73 1196.6 1028.91L1194.54 1028.6L1193.22 1026.74C1192.47 1027.39 1189.33 1043.27 1186.7 1047.52C1182.81 1053.82 1176.37 1058.01 1169.23 1059.72C1159.87 1061.97 1150.59 1060.17 1142.53 1055C1135.92 1050.77 1131.34 1044.23 1130 1036.45C1128.62 1028.28 1130.73 1019.9 1135.83 1013.37C1141.07 1006.4 1148.95 1001.89 1157.62 1000.92C1168.85 999.76 1177.73 1004.46 1186.23 1011.16C1200.21 1002.41 1215.19 994.151 1229.91 986.714C1240.11 981.164 1250.14 975.332 1260.4 969.877Z"/>
	<path fill="#0C1F2F" d="M1318.34 975.838L1322.01 973.936C1322.95 975.151 1323.22 974.9 1322.9 976.275C1322.4 978.387 1319.99 981.671 1318.04 982.716C1317.71 982.893 1317.34 982.988 1317 983.139C1315.52 983.785 1314.06 984.514 1312.59 985.19L1311.32 983.877C1313.8 981.354 1316.04 978.532 1318.34 975.838Z"/>
	<path fill="#0C1F2F" d="M1195.8 1023.49L1200.65 1021.34L1201.75 1024.49C1199.84 1027.18 1199.63 1027.73 1196.6 1028.91L1194.54 1028.6L1193.22 1026.74L1195.8 1023.49Z"/>
	<path fill="#0C1F2F" d="M1156.85 1044.82C1152.82 1043.67 1148.84 1040.71 1146.76 1037.03C1145.08 1034.06 1144.75 1030.68 1145.7 1027.42C1147.01 1023.07 1150.05 1019.45 1154.1 1017.41C1157.51 1015.69 1161.65 1015.13 1165.25 1016.65C1169.08 1018.27 1171.59 1021.89 1173.14 1025.6C1175.09 1030.25 1174.24 1034.64 1172.46 1039.16C1168.25 1043.31 1166.05 1045 1160.05 1044.96C1158.98 1044.95 1157.92 1044.88 1156.85 1044.82Z"/>
	<path fill="#12172E" d="M1156.85 1044.82C1156.85 1042.8 1156.62 1043.85 1157.89 1041.77C1172.52 1038.22 1164.31 1035.41 1171.59 1030.59L1172.63 1031.68C1171.89 1034.07 1172.05 1035.79 1172.34 1038.23L1172.46 1039.16C1168.25 1043.31 1166.05 1045 1160.05 1044.96C1158.98 1044.95 1157.92 1044.88 1156.85 1044.82Z"/>
	<path fill="#0C1F2F" d="M1287.11 946.311C1294.53 944.3 1302.17 948.659 1304.22 956.065C1306.28 963.471 1301.96 971.143 1294.56 973.234C1287.11 975.343 1279.37 970.985 1277.3 963.522C1275.23 956.058 1279.63 948.337 1287.11 946.311Z"/>
	<path fill="#17B4C7" d="M1301.95 1097.35C1302.82 1116.91 1302.21 1136.69 1302.15 1156.27C1302.1 1172.55 1302.74 1189.19 1301.8 1205.43C1287.93 1212.93 1274.21 1220.69 1260.65 1228.72C1252.22 1233.72 1243.17 1240.24 1234.14 1243.89C1232.5 1244.56 1231.3 1244.75 1229.58 1244.23C1225.85 1243.12 1224.21 1239.64 1222.39 1236.49L1220.12 1235.48C1220.43 1233.74 1220.03 1234.57 1221.66 1233.19L1223.74 1233.43L1224.6 1234.49C1225.01 1234.98 1225.43 1235.46 1225.84 1235.95C1227.77 1238.29 1228.99 1240 1232.23 1240.63C1233.75 1240.92 1234.99 1240.74 1236.35 1240.01C1248.36 1233.59 1259.83 1225.23 1271.42 1218.02C1279.47 1213.01 1288.3 1208.97 1295.88 1203.29C1297.16 1200.67 1297.51 1198.23 1297.79 1195.33C1298.85 1184.03 1297.74 1172.29 1298.26 1160.92C1298.81 1148.58 1300.56 1136.34 1300.96 1123.97C1301.22 1115.78 1300.35 1106.53 1301.7 1098.51C1301.77 1098.12 1301.87 1097.74 1301.95 1097.35Z"/>
	<path fill="#0C1F2F" d="M1170.41 1243.4L1166.91 1239.47L1167.32 1238.22C1169.91 1237.56 1172.94 1238.62 1175.39 1239.76C1176.21 1240.15 1176.49 1240.44 1177.11 1240.98L1177.35 1243.48C1174.08 1244.32 1173.57 1244.86 1170.41 1243.4Z"/>
	<path fill="#0C1F2F" d="M1149.75 1256.21C1156.26 1254.03 1163.33 1257.42 1165.7 1263.86C1168.08 1270.3 1164.91 1277.46 1158.54 1280.03C1154.25 1281.77 1149.35 1281.03 1145.76 1278.1C1142.17 1275.18 1140.45 1270.53 1141.28 1265.97C1142.11 1261.42 1145.36 1257.67 1149.75 1256.21Z"/>
	<path fill="#0C1F2F" d="M1112.23 1130.35C1118.6 1127.75 1125.88 1130.73 1128.61 1137.05C1131.34 1143.36 1128.52 1150.7 1122.26 1153.56C1118.09 1155.47 1113.22 1154.97 1109.53 1152.26C1105.83 1149.55 1103.89 1145.06 1104.45 1140.51C1105.01 1135.97 1107.99 1132.08 1112.23 1130.35Z"/>
	<path fill="#1CE9EB" d="M1002.63 628.105C1013.51 626.636 1036.06 643.496 1045.17 649.921C1023.31 662.128 1001.91 674.966 979.372 685.927C979.241 685.962 979.115 686.014 978.981 686.033C973.712 686.756 943.081 667.517 936.677 663.364C953.806 652.003 984.022 636.596 1002.63 628.105Z"/>
	<path fill="#1CE9EB" d="M909.68 672.645C918.538 676.14 944.653 688.673 950.159 695.503C952.458 709.647 947.135 725.821 951.562 739.521C952.433 739.887 953.328 740.349 954.247 740.569L953.301 742.201C951.931 742.176 950.588 742.094 949.222 742.023C947.517 741.935 948.136 741.953 946.228 742.761C938.31 731.261 904.206 714.839 891.183 707.959C884.672 704.52 875.279 700.741 870.461 695.234L872.608 692.388C870.722 692.063 871.703 692.38 869.726 691.264C869.841 690.978 869.923 690.677 870.07 690.406C873.052 684.917 881.311 681.25 887.059 679.943L890.143 682.76C896.501 679.262 902.92 675.272 909.68 672.645Z"/>
	<path fill="#12172E" d="M872.608 692.388C870.722 692.063 871.703 692.38 869.726 691.264C869.841 690.978 869.923 690.677 870.07 690.406C873.052 684.917 881.311 681.25 887.059 679.943L890.143 682.76C885.151 685.691 878.097 691.126 872.608 692.388Z"/>
	<path fill="#FC9640" d="M1094.27 1070.19C1094.72 1070.22 1095.17 1070.22 1095.62 1070.27C1099.61 1070.68 1103.7 1072.14 1106.17 1075.47C1108.11 1078.1 1108.45 1080.78 1107.72 1083.9C1106.71 1088.21 1102.72 1090.44 1099.25 1092.56C1096.93 1092.43 1094.24 1092.35 1092 1091.7C1088.99 1090.82 1086.03 1088.19 1084.59 1085.44C1083.11 1082.6 1083.11 1080.13 1084.31 1077.21C1086.07 1072.91 1090.23 1071.55 1094.27 1070.19Z"/>
	<path fill="#FC9640" d="M1181.48 1154.14C1183.04 1153.95 1184.55 1153.79 1186.12 1153.87C1189.39 1154.04 1192.81 1155.17 1194.9 1157.85C1196.72 1160.17 1197.24 1161.96 1196.99 1164.89C1196.62 1169.22 1193.64 1171.46 1190.49 1173.92C1186.05 1174.14 1181.1 1174.39 1177.66 1170.99C1175.72 1169.07 1174.66 1166.94 1174.86 1164.16C1175.19 1159.69 1178.39 1156.94 1181.48 1154.14Z"/>
</svg>
